<svg id="visual" viewBox="0 0 900 600" width="900" height="600" xmlns="http://www.w3.org/2000/svg" xmlns:xlink="http://www.w3.org/1999/xlink" version="1.1"><path d="M647 600L701 563L665 525L746 488L620 450L728 413L584 375L575 338L710 300L692 263L719 225L728 188L656 150L620 113L737 75L539 38L674 0L900 0L900 38L900 75L900 113L900 150L900 188L900 225L900 263L900 300L900 338L900 375L900 413L900 450L900 488L900 525L900 563L900 600Z" fill="#001122"></path><path d="M476 600L611 563L575 525L530 488L485 450L548 413L431 375L485 338L539 300L557 263L593 225L602 188L449 150L458 113L602 75L395 38L584 0L675 0L540 38L738 75L621 113L657 150L729 188L720 225L693 263L711 300L576 338L585 375L729 413L621 450L747 488L666 525L702 563L648 600Z" fill="#322a49"></path><path d="M269 600L332 563L359 525L251 488L233 450L323 413L305 375L278 338L359 300L287 263L305 225L242 188L251 150L260 113L314 75L233 38L287 0L585 0L396 38L603 75L459 113L450 150L603 188L594 225L558 263L540 300L486 338L432 375L549 413L486 450L531 488L576 525L612 563L477 600Z" fill="#723e61"></path><path d="M197 600L251 563L233 525L170 488L179 450L242 413L206 375L215 338L242 300L206 263L197 225L143 188L188 150L125 113L206 75L170 38L197 0L288 0L234 38L315 75L261 113L252 150L243 188L306 225L288 263L360 300L279 338L306 375L324 413L234 450L252 488L360 525L333 563L270 600Z" fill="#b05766"></path><path d="M98 600L134 563L134 525L89 488L116 450L152 413L116 375L125 338L134 300L98 263L134 225L80 188L125 150L71 113L143 75L107 38L107 0L198 0L171 38L207 75L126 113L189 150L144 188L198 225L207 263L243 300L216 338L207 375L243 413L180 450L171 488L234 525L252 563L198 600Z" fill="#db805c"></path><path d="M0 600L0 563L0 525L0 488L0 450L0 413L0 375L0 338L0 300L0 263L0 225L0 188L0 150L0 113L0 75L0 38L0 0L108 0L108 38L144 75L72 113L126 150L81 188L135 225L99 263L135 300L126 338L117 375L153 413L117 450L90 488L135 525L135 563L99 600Z" fill="#eab757"></path></svg>