<svg id="visual" viewBox="0 0 900 600" width="900" height="600" xmlns="http://www.w3.org/2000/svg" xmlns:xlink="http://www.w3.org/1999/xlink" version="1.1"><rect x="0" y="0" width="900" height="600" fill="#e3d3a3"></rect><path d="M0 425L129 363L257 367L386 361L514 349L643 439L771 431L900 408L900 601L771 601L643 601L514 601L386 601L257 601L129 601L0 601Z" fill="#dc8116"></path><path d="M0 440L129 448L257 430L386 455L514 437L643 413L771 416L900 434L900 601L771 601L643 601L514 601L386 601L257 601L129 601L0 601Z" fill="#deb76d"></path><path d="M0 447L129 476L257 468L386 510L514 442L643 451L771 469L900 441L900 601L771 601L643 601L514 601L386 601L257 601L129 601L0 601Z" fill="#e3d3a3"></path><path d="M0 523L129 522L257 491L386 505L514 524L643 483L771 529L900 482L900 601L771 601L643 601L514 601L386 601L257 601L129 601L0 601Z" fill="#deb76d"></path><path d="M0 550L129 531L257 565L386 560L514 547L643 572L771 533L900 540L900 601L771 601L643 601L514 601L386 601L257 601L129 601L0 601Z" fill="#dc8116"></path></svg>